:SAMPLES-PER-SECOND 30
:FULLY-SPECIFIED
:DEGREES
196
root  34.90660059 36.5548622 -14.27156493 10.76427937 -0.0501579456 4.708042145
lowerback  -8.699126244 2.013940334 0.9821645617
upperback  -4.132178783 2.151720047 -4.931042671
thorax  0.8099044561 0.7978873253 -5.488460064
lowerneck  -11.30179977 -9.549570084 -5.50865984
upperneck  11.7954998 -13.47550106 8.178489685
head  6.369822979 -6.331977367 2.184724092
lclavicle  0 -4.497500157e-015 -2.743230041e-014
lhumerus  -47.94889832 30.07229996 60.98740005
lradius  0.01029662788 -6.507048965e-006 28.58989716
lwrist  3.192251654e-007 -3.790274832e-007 -30.70870018
lhand  -4.444749912e-031 -37.39680099 -10.59200001
lfingers  90 7.125020027 -90
lthumb  95.03052065 -25.41144884 101.5923974
rclavicle  0 -4.497500157e-015 -2.743230041e-014
rhumerus  56.81969833 -22.4727993 -47.46709824
rradius  -5.16745672e-007 2.214343908e-008 36.63819885
rwrist  0.0006954420824 -0.004670973402 -156.9960022
rhand  -1.771011023e-031 4.495490074 -8.010800362
rfingers  -90 -7.125020027 -90
rthumb  -85.2932856 -8.124887646 -59.77693282
rfemur  -12.51580429 13.91866398 12.06362247
rtibia  -1.305909038 -1.087486506 20.05124474
rfoot  0.01958174258 -20.46567535 -38.33524323
rtoes  3.822133895 19.64608168 -101.2388187
lfemur  -6.004779816 -18.00184441 -22.69543076
ltibia  6.353701591 0.2474123836 8.501308441
lfoot  0.7560508251 -23.30377197 34.28037643
ltoes  -8.67904985 -18.08859366 -116.1804861
197
root  34.90773599 36.55439362 -14.26990389 10.77966404 -0.08158355951 4.707750797
lowerback  -8.697340965 2.014112711 1.003108978
upperback  -4.134440899 2.156909943 -4.931236267
thorax  0.8128283024 0.7972954512 -5.507380009
lowerneck  -11.34599972 -9.56072998 -5.511410236
upperneck  11.85420036 -13.49489975 8.175800323
head  6.397069931 -6.330364704 2.179090023
lclavicle  0 -4.497500157e-015 -2.743230041e-014
lhumerus  -47.93650055 30.08589935 60.95080185
lradius  0.01074317098 -6.507048965e-006 28.5909996
lwrist  3.192251654e-007 -3.790274832e-007 -30.7621994
lhand  -4.442818134e-031 -37.36420059 -10.59729958
lfingers  90 7.125020027 -90
lthumb  95.01643218 -25.41783031 101.5580081
rclavicle  0 -4.497500157e-015 -2.743230041e-014
rhumerus  56.74440002 -22.42480087 -47.44960022
rradius  -5.16745672e-007 2.214343908e-008 36.66859818
rwrist  0.0006954420824 -0.004670973402 -156.9689941
rhand  -1.771169402e-031 4.560190201 -7.976029873
rfingers  -90 -7.125020027 -90
rthumb  -85.2611118 -8.159445688 -59.71140672
rfemur  -12.5096302 13.90016747 12.04551315
rtibia  -1.291525245 -1.145536423 20.01179886
rfoot  0.0195060838 -20.58468437 -38.32305527
rtoes  3.844322007 19.64191679 -101.3048203
lfemur  -6.043692589 -18.02912521 -22.68256378
ltibia  6.332745075 0.2445976883 8.547718048
lfoot  0.7683782578 -23.31635094 34.32154083
ltoes  -8.670782695 -18.09245492 -116.1538624
198
root  34.90957425 36.55442666 -14.26842757 10.79147816 -0.1311279535 4.710208416
lowerback  -8.691740036 2.014277935 1.000146627
upperback  -4.136757851 2.166409969 -4.931623459
thorax  0.8127629757 0.7967986465 -5.500430107
lowerneck  -11.32390022 -9.567569733 -5.544680119
upperneck  11.8125 -13.50399971 8.22262001
head  6.386459827 -6.328682423 2.199249983
lclavicle  0 -4.497500157e-015 -2.743230041e-014
lhumerus  -47.89979935 30.0170002 61.00889969
lradius  0.01118059922 -6.507048965e-006 28.61070251
lwrist  3.192251654e-007 -3.790274832e-007 -30.65099907
lhand  -4.44351693e-031 -37.37599945 -10.57310009
lfingers  90 7.125020027 -90
lthumb  95.0165671 -25.39361562 101.5683243
rclavicle  0 -4.497500157e-015 -2.743230041e-014
rhumerus  56.75310516 -22.42429924 -47.53250122
rradius  -5.16745672e-007 2.214343908e-008 36.61999893
rwrist  0.0006954420824 -0.004670973402 -156.7839966
rhand  -1.771330443e-031 4.625040054 -8.04957962
rfingers  -90 -7.125020027 -90
rthumb  -85.28406759 -8.100562734 -59.65358261
rfemur  -12.51878357 13.90794945 12.03316498
rtibia  -1.288690209 -1.179908872 19.99444199
rfoot  0.02259645425 -20.64512825 -38.30675888
rtoes  3.857105289 19.63950584 -101.3428521
lfemur  -6.115974903 -18.02642632 -22.66021538
ltibia  6.28894043 0.240841195 8.645284653
lfoot  0.782743752 -23.35300255 34.34385681
ltoes  -8.676498845 -18.08978562 -116.1722702
199
root  34.90976048 36.55466996 -14.26502738 10.79711723 -0.1474013478 4.711381435
lowerback  -8.684754372 2.014456034 1.017942309
upperback  -4.139156342 2.158570051 -4.932243824
thorax  0.8060619831 0.7963619232 -5.508419991
lowerneck  -11.38669968 -9.563120842 -5.498439789
upperneck  11.88543892 -13.49234867 8.133673668
head  6.409520149 -6.32700634 2.162509918
lclavicle  0 -4.497500157e-015 -2.743230041e-014
lhumerus  -47.86840057 29.99559975 61.02709961
lradius  0.01160869375 -6.507048965e-006 28.61090279
lwrist  3.192251654e-007 -3.790274832e-007 -30.5977993
lhand  -4.444850587e-031 -37.39849854 -10.60070038
lfingers  90 7.125020027 -90
lthumb  95.03316592 -25.41983928 101.5948816
rclavicle  0 -4.497500157e-015 -2.743230041e-014
rhumerus  56.65449905 -22.31950188 -47.3512001
rradius  -5.16745672e-007 2.214343908e-008 36.67350006
rwrist  0.0006954420824 -0.004670973402 -156.9170074
rhand  -1.771342579e-031 4.629889965 -8.004570007
rfingers  -90 -7.125020027 -90
rthumb  -85.26003563 -8.139709526 -59.64565109
rfemur  -12.50583935 13.89439297 12.01297855
rtibia  -1.277482748 -1.189699411 19.96055412
rfoot  0.03406432644 -20.65019608 -38.29731369
rtoes  3.845461386 19.64170224 -101.30821
lfemur  -6.154085159 -18.01745605 -22.65820694
ltibia  6.262459755 0.2349714041 8.705043793
lfoot  0.7862948179 -23.37005424 34.33714676
ltoes  -8.664322502 -18.09546901 -116.1330618
200
root  34.90984158 36.55674852 -14.26147251 10.82267475 -0.1653265655 4.705951691
lowerback  -8.656834602 2.01466608 1.028120041
upperback  -4.142139912 2.148400068 -4.933137417
thorax  0.7850490212 0.7959502935 -5.522220135
lowerneck  -11.34700012 -9.556429863 -5.516250134
upperneck  11.83785629 -13.48958683 8.179989815
head  6.392179966 -6.325414181 2.182339907
lclavicle  0 -4.497500157e-015 -2.743230041e-014
lhumerus  -47.87179947 30.03720284 60.9598999
lradius  0.01202723384 -6.507048965e-006 28.5909996
lwrist  3.192251654e-007 -3.790274832e-007 -30.64949989
lhand  -4.445016664e-031 -37.40129852 -10.5340004
lfingers  90 7.125020027 -90
lthumb  95.01969713 -25.35445091 101.591627
rclavicle  0 -4.497500157e-015 -2.743230041e-014
rhumerus  56.54899979 -22.22990036 -47.19139862
rradius  -5.16745672e-007 2.214343908e-008 36.69499969
rwrist  0.0006954420824 -0.004670973402 -157.0800018
rhand  -1.771415188e-031 4.658800125 -7.983970165
rfingers  -90 -7.125020027 -90
rthumb  -85.24302368 -8.159509052 -59.61601078
rfemur  -12.53238773 13.86774635 12.00912666
rtibia  -1.270711303 -1.18093729 19.9581089
rfoot  0.04836560786 -20.63123512 -38.24630356
rtoes  3.850482288 19.64075599 -101.3231474
lfemur  -6.179105759 -18.01329994 -22.64779282
ltibia  6.263912201 0.2291222513 8.703404427
lfoot  0.7757686377 -23.34119987 34.32226944
ltoes  -8.651689878 -18.10135479 -116.0923966
